name C:/MyDriveSym/Projects/mobilecap/Data\Session20210823_0002\mocap\ForceDataProcessed\walking3_forces.mot
datacolumns 19
datarows 12
range 1.08700000 1.09250000
endheader 
time	R_ground_force_vx	R_ground_force_vy	R_ground_force_vz	R_ground_force_px	R_ground_force_py	R_ground_force_pz	R_ground_torque_x	R_ground_torque_y	R_ground_torque_z	L_ground_force_vx	L_ground_force_vy	L_ground_force_vz	L_ground_force_px	L_ground_force_py	L_ground_force_pz	L_ground_torque_x	L_ground_torque_y	L_ground_torque_z	
          1.08700000	          0.00000000	          0.00000000	          0.00000000	          1.23710700	          0.00000000	         -0.15999000	          0.00000000	          0.00000000	          0.00000000	         34.34726200	        624.64258300	         31.73035300	          0.92381500	          0.00600000	         -0.28778600	          0.00000000	          2.79128500	          0.00000000	
          1.08750000	          0.00000000	          0.00000000	          0.00000000	          1.23833500	          0.00000000	         -0.16003800	          0.00000000	          0.00000000	          0.00000000	         34.54270100	        625.17374500	         31.83424800	          0.92394400	          0.00600000	         -0.28781100	          0.00000000	          2.78495400	          0.00000000	
          1.08800000	          0.00000000	          0.00000000	          0.00000000	          1.23956400	          0.00000000	         -0.16008600	          0.00000000	          0.00000000	          0.00000000	         34.73837500	        625.70229400	         31.93770900	          0.92407300	          0.00600000	         -0.28783500	          0.00000000	          2.77857600	          0.00000000	
          1.08850000	          0.00000000	          0.00000000	          0.00000000	          1.24079200	          0.00000000	         -0.16013300	          0.00000000	          0.00000000	          0.00000000	         34.93428200	        626.22818100	         32.04072700	          0.92420300	          0.00600000	         -0.28785900	          0.00000000	          2.77215000	          0.00000000	
          1.08900000	          0.00000000	          0.00000000	          0.00000000	          1.24202000	          0.00000000	         -0.16018100	          0.00000000	          0.00000000	          0.00000000	         35.13042100	        626.75135700	         32.14329300	          0.92433200	          0.00600000	         -0.28788400	          0.00000000	          2.76567900	          0.00000000	
          1.08950000	          0.00000000	          0.00000000	          0.00000000	          1.24324900	          0.00000000	         -0.16022900	          0.00000000	          0.00000000	          0.00000000	         35.32679100	        627.27177400	         32.24539800	          0.92446200	          0.00600000	         -0.28790800	          0.00000000	          2.75916100	          0.00000000	
          1.09000000	          0.00000000	          0.00000000	          0.00000000	          1.24447700	          0.00000000	         -0.16027600	          0.00000000	          0.00000000	          0.00000000	         35.52339100	        627.78938300	         32.34703200	          0.92459200	          0.00600000	         -0.28793200	          0.00000000	          2.75259900	          0.00000000	
          1.09050000	          0.00000000	          0.00000000	          0.00000000	          1.24570500	          0.00000000	         -0.16032400	          0.00000000	          0.00000000	          0.00000000	         35.72021900	        628.30413600	         32.44818600	          0.92472200	          0.00600000	         -0.28795600	          0.00000000	          2.74599200	          0.00000000	
          1.09100000	          0.00000000	          0.00000000	          0.00000000	          1.24693400	          0.00000000	         -0.16037200	          0.00000000	          0.00000000	          0.00000000	         35.91727400	        628.81598300	         32.54885200	          0.92485200	          0.00600000	         -0.28798000	          0.00000000	          2.73934100	          0.00000000	
          1.09150000	          0.00000000	          0.00000000	          0.00000000	          1.24816200	          0.00000000	         -0.16041900	          0.00000000	          0.00000000	          0.00000000	         36.11455600	        629.32487600	         32.64901900	          0.92498200	          0.00600000	         -0.28800400	          0.00000000	          2.73264700	          0.00000000	
          1.09200000	          0.00000000	          0.00000000	          0.00000000	          1.24939000	          0.00000000	         -0.16046700	          0.00000000	          0.00000000	          0.00000000	         36.31206300	        629.83076600	         32.74867900	          0.92511200	          0.00600000	         -0.28802800	          0.00000000	          2.72591000	          0.00000000	
          1.09250000	          0.00000000	          0.00000000	          0.00000000	          1.25061900	          0.00000000	         -0.16051500	          0.00000000	          0.00000000	          0.00000000	         36.50979300	        630.33360300	         32.84782200	          0.92524200	          0.00600000	         -0.28805100	          0.00000000	          2.71913100	          0.00000000	
